<svg xmlns="http://www.w3.org/2000/svg" viewBox="0 0 400 400" fill="none">
  <defs>
    <linearGradient id="bg" x1="0" y1="0" x2="1" y2="1">
      <stop offset="0%" stop-color="#0061A4"/>
      <stop offset="100%" stop-color="#003D6B"/>
    </linearGradient>
    <linearGradient id="bulb" x1="0.5" y1="0" x2="0.5" y2="1">
      <stop offset="0%" stop-color="#FFE566"/>
      <stop offset="100%" stop-color="#FFD700"/>
    </linearGradient>
  </defs>
  <circle cx="200" cy="200" r="190" fill="url(#bg)"/>
  <circle cx="200" cy="120" r="55" fill="#FFE566" opacity="0.1"/>
  <path d="M200 50 C176 50 156 65 152 88 C148 111 156 132 172 147 L172 165 C172 171 176 175 182 175 L218 175 C224 175 228 171 228 165 L228 147 C244 132 252 111 248 88 C244 65 224 50 200 50 Z" fill="url(#bulb)" stroke="#DAA520" stroke-width="2.5"/>
  <path d="M186 106 L194 122 L200 106 L206 122 L214 106" stroke="#DAA520" stroke-width="2.5" fill="none" stroke-linecap="round"/>
  <rect x="184" y="175" width="32" height="7" rx="3" fill="#C0C0C0"/>
  <rect x="188" y="182" width="24" height="10" rx="2" fill="#A0A0A0"/>
  <line x1="200" y1="35" x2="200" y2="28" stroke="#FFE566" stroke-width="3" stroke-linecap="round" opacity="0.7"/>
  <line x1="235" y1="52" x2="241" y2="46" stroke="#FFE566" stroke-width="3" stroke-linecap="round" opacity="0.5"/>
  <line x1="248" y1="88" x2="256" y2="85" stroke="#FFE566" stroke-width="3" stroke-linecap="round" opacity="0.5"/>
  <line x1="165" y1="52" x2="159" y2="46" stroke="#FFE566" stroke-width="3" stroke-linecap="round" opacity="0.5"/>
  <line x1="152" y1="88" x2="144" y2="85" stroke="#FFE566" stroke-width="3" stroke-linecap="round" opacity="0.5"/>
  <path d="M35 250 C35 185 115 165 200 165 C285 165 365 185 365 250 L365 360 C365 385 285 400 200 400 C115 400 35 385 35 360 Z" fill="white" opacity="0.95"/>
  <line x1="200" y1="165" x2="200" y2="400" stroke="#0061A4" stroke-width="3" opacity="0.15"/>
  <path d="M35 250 C35 225 115 205 200 205 L200 385 C115 385 35 370 35 355 Z" fill="white"/>
  <path d="M365 250 C365 225 285 205 200 205 L200 385 C285 385 365 370 365 355 Z" fill="#F0F4FF"/>
  <line x1="65" y1="260" x2="185" y2="260" stroke="#D0D5E0" stroke-width="8" stroke-linecap="round"/>
  <line x1="65" y1="295" x2="178" y2="295" stroke="#D0D5E0" stroke-width="8" stroke-linecap="round"/>
  <line x1="65" y1="330" x2="168" y2="330" stroke="#D0D5E0" stroke-width="8" stroke-linecap="round"/>
  <line x1="215" y1="260" x2="335" y2="260" stroke="#D0D5E0" stroke-width="8" stroke-linecap="round"/>
  <line x1="215" y1="295" x2="325" y2="295" stroke="#D0D5E0" stroke-width="8" stroke-linecap="round"/>
  <line x1="215" y1="330" x2="310" y2="330" stroke="#D0D5E0" stroke-width="8" stroke-linecap="round"/>
</svg>
